<?xml version="1.0"?>
<svg xmlns="http://www.w3.org/2000/svg" id="Capa_1" enable-background="new 0 0 512 512" height="512px" viewBox="0 0 512 512" width="512px" class=""><g><g><path d="m0 105.887v-39.925c0-16.542 13.467-30 30.019-30h451.962c16.553 0 30.019 13.458 30.019 30v39.925z" data-original="#000000" class="active-path" data-old_color="#000000" fill="#E09F3E"/><path d="m512 136.685h-512v309.352c0 16.569 13.44 30 30.019 30h451.962c16.579 0 30.019-13.431 30.019-30zm-327.34 216.09c6.524 5.111 7.667 14.539 2.552 21.06-2.96 3.773-7.369 5.745-11.822 5.746-3.24 0-6.503-1.044-9.25-3.196l-62.06-48.621c-3.629-2.843-5.749-7.196-5.749-11.805s2.12-8.962 5.749-11.805l62.06-48.621c6.523-5.111 15.959-3.968 21.072 2.55 5.115 6.521 3.972 15.948-2.552 21.06l-46.992 36.816zm106.832-110.346-41.47 154.816c-1.796 6.703-7.861 11.125-14.49 11.125-1.285 0-2.59-.166-3.891-.514-8.008-2.143-12.761-10.366-10.617-18.369l41.469-154.816c2.143-8.003 10.369-12.754 18.38-10.611 8.009 2.143 12.762 10.366 10.619 18.369zm116.428 85.334-62.06 48.621c-2.747 2.152-6.011 3.196-9.25 3.196-4.453 0-8.862-1.973-11.822-5.746-5.115-6.521-3.972-15.948 2.552-21.06l46.992-36.816-46.992-36.816c-6.712-5.259-7.728-15.088-2.092-21.618 5.279-6.116 14.584-6.715 20.945-1.731l61.728 48.361c3.629 2.843 5.749 7.196 5.749 11.805s-2.12 8.961-5.75 11.804z" data-original="#000000" class="active-path" data-old_color="#000000" fill="#E09F3E"/></g></g> </svg>
