<?xml version="1.0"?>
<svg xmlns="http://www.w3.org/2000/svg" xmlns:xlink="http://www.w3.org/1999/xlink" version="1.1" id="Capa_1" x="0px" y="0px" viewBox="0 0 512 512" style="enable-background:new 0 0 512 512;" xml:space="preserve" width="512px" height="512px"><g><g>
	<g>
		<path d="M482,35.855H30c-16.569,0-30,13.431-30,30v225.471h512V65.855C512,49.286,498.569,35.855,482,35.855z M182.275,209.392    c6.842,4.671,8.602,14.004,3.931,20.846c-2.904,4.254-7.612,6.544-12.402,6.544c-2.913,0-5.856-0.847-8.444-2.613l-55.007-37.553    c-4.949-3.379-7.903-8.974-7.903-14.965c0.001-5.992,2.956-11.585,7.904-14.963l55.006-37.553    c6.842-4.67,16.175-2.911,20.846,3.931c4.671,6.842,2.911,16.175-3.931,20.846l-40.634,27.741L182.275,209.392z M299.185,135.44    l-60.218,107.123c-2.753,4.897-7.845,7.652-13.089,7.652c-2.49,0-5.012-0.62-7.336-1.927c-7.222-4.06-9.785-13.205-5.726-20.426    l60.218-107.123c4.06-7.222,13.206-9.784,20.426-5.726C300.681,119.074,303.244,128.219,299.185,135.44z M401.648,196.615    l-55.008,37.554c-2.587,1.766-5.531,2.613-8.444,2.613c-4.791,0-9.497-2.289-12.402-6.544c-4.671-6.842-2.911-16.175,3.931-20.846    l40.634-27.741l-40.634-27.741c-6.842-4.671-8.602-14.004-3.931-20.846c4.671-6.841,14.004-8.601,20.846-3.931l55.007,37.554    c4.947,3.376,7.902,8.97,7.903,14.962C409.551,187.642,406.597,193.236,401.648,196.615z" data-original="#000000" class="active-path" data-old_color="#000000" fill="#FFFFFF"/>
	</g>
</g><g>
	<g>
		<path d="M0,321.326v32.803c0,16.569,13.431,30,30,30h181.494v62.016h-37.587c-8.284,0-15,6.716-15,15s6.716,15,15,15h164.187    c8.284,0,15-6.716,15-15s-6.716-15-15-15h-37.587v-62.016H482c16.569,0,30-13.431,30-30v-32.803H0z" data-original="#000000" class="active-path" data-old_color="#000000" fill="#FFFFFF"/>
	</g>
</g></g> </svg>
