<?xml version="1.0"?>
<svg xmlns="http://www.w3.org/2000/svg" xmlns:xlink="http://www.w3.org/1999/xlink" version="1.1" id="Capa_1" x="0px" y="0px" width="512px" height="512px" viewBox="0 0 453.325 453.325" style="enable-background:new 0 0 453.325 453.325;" xml:space="preserve"><g><g>
	<g>
		<path d="M226.819,81.668c-103.253,0-190.874,41.275-222.273,98.609c-17.334,32.885,12.599,90.903,129.86,84.891    c181.132-9.289-65.748,100.094,110.448,106.489c120.464-5.718,208.471-68.322,208.471-144.758    C453.325,146.695,356.446,81.668,226.819,81.668z M90.249,195.499c-18.362,0-41.216,0-41.216-25.515    c0-20.584,15.797-33.364,41.216-33.364c25.417,0,41.212,12.78,41.212,33.364C131.461,195.499,108.608,195.499,90.249,195.499z     M200.152,152.321c-20.592,0-37.289-0.996-37.289-21.588c0-20.592,16.697-29.439,37.289-29.439    c20.592,0,37.289,8.847,37.289,29.439C237.441,151.325,220.744,152.321,200.152,152.321z M266.88,329.937    c-21.135,0-38.269-12.299-38.269-27.475c0-15.181,17.134-27.479,38.269-27.479c21.131,0,38.271,12.299,38.271,27.479    C305.15,317.638,288.011,329.937,266.88,329.937z M310.06,171.947c-18.361,0-41.216,0-41.216-25.513    c0-20.584,15.793-33.366,41.216-33.366c25.411,0,41.213,12.782,41.213,33.366C351.272,171.947,328.418,171.947,310.06,171.947z     M425.851,217.087c0,20.591-16.695,21.588-37.289,21.588c-20.59,0-37.289-0.997-37.289-21.588    c0-20.592,16.699-29.438,37.289-29.438C409.155,187.648,425.851,196.495,425.851,217.087z" data-original="#000000" class="active-path" data-old_color="#000000" fill="#FFFFFF"/>
		<path d="M310.06,120.919c-10.038,0-33.365,2.489-33.365,25.515c0,15.919,10.68,17.663,33.365,17.663    c22.674,0,33.362-1.743,33.362-17.663C343.422,123.408,320.087,120.919,310.06,120.919z" data-original="#000000" class="active-path" data-old_color="#000000" fill="#FFFFFF"/>
		<path d="M90.249,144.471c-10.033,0-33.366,2.488-33.366,25.513c0,15.919,10.684,17.665,33.366,17.665    c22.68,0,33.364-1.745,33.364-17.665C123.612,146.959,100.279,144.471,90.249,144.471z" data-original="#000000" class="active-path" data-old_color="#000000" fill="#FFFFFF"/>
	</g>
</g></g> </svg>
